<svg id="Layer_1" data-name="Layer 1" xmlns="http://www.w3.org/2000/svg" viewBox="0 0 1200 1200"><defs><style>.cls-1{fill:#2027b8;}.cls-2{fill:#ea2922;}.cls-3{fill:#6f00b1;}.cls-4{fill:#231f20;}</style></defs><title>fluid logo svg</title><path class="cls-1" d="M858.23,603.45c-2.07,16.61-11.68,32.37-26.09,41-25.86,15.52-59.09,7.4-87.1-3.77s-57.13-25.28-86.87-20.33C636,624,616.68,638,594.7,642.75c-19.66,4.24-41.25.41-57.34-11.66s-25.95-32.55-23.78-52.55c2.57-23.8,22-44,45.06-50.44,35.91-10,58.52,12.68,89,25.46,32.41,13.6,70,11.82,103.16,1.82,19.87-6,39.93-14.93,60.5-12.17,22.32,3,41.79,21.17,46.34,43.23A52.53,52.53,0,0,1,858.23,603.45Z"/><path class="cls-2" d="M578.44,220.25c15.3-6.77,33.76-6.62,48.59,1.29,26.6,14.2,36.72,46.88,41.54,76.65s7.69,62,27.22,85c14.57,17.13,36.48,26.5,51.84,42.92,13.74,14.69,21.56,35.18,19.48,55.18s-14.59,39-32.85,47.41c-21.74,10-49.09,3.79-66.43-12.71-27-25.7-19.21-56.72-23.91-89.41-5-34.79-25.85-66.14-51.47-89.41-15.36-14-33.33-26.57-41.54-45.64-8.9-20.69-3.33-46.73,13.25-62A52.29,52.29,0,0,1,578.44,220.25Z"/><path class="cls-3" d="M586,375.65c-13.84-9.41-32-12.58-48-7.46-28.72,9.19-44.55,39.51-54.64,67.93s-18.71,59.61-42.05,78.7c-17.41,14.23-40.64,19.52-58.71,32.91-16.15,12-27.53,30.72-29.08,50.77s7.35,41,23.8,52.55c19.58,13.77,47.61,12.55,67.64-.57,31.17-20.43,29.09-52.34,39.58-83.65,11.16-33.34,37.32-60.42,66.7-78.72,17.62-11,37.57-20.14,49.06-37.43,12.48-18.75,11.68-45.36-1.9-63.34A52.43,52.43,0,0,0,586,375.65Z"/><path class="cls-4" d="M109.48,802.73Q92,814.23,92,837.79v96.54h27.75V875H175.9V852.9H119.75l-.19-15.3q0-11.11,7.69-17,7.41-5.8,21.95-5.8l26.7.19V793H149.2Q124.49,793,109.48,802.73Z"/><path class="cls-4" d="M357.74,904.69Q351,897.85,351,884.07l.19-91H323.82v98.44q2,21.94,20.62,33.64a58.78,58.78,0,0,0,31.93,9.21H406.2v-22H382.07Q365.06,912.29,357.74,904.69Z"/><path class="cls-4" d="M629.47,879.33a33.82,33.82,0,0,1-2.29,9c-2.6,6.28-6.69,9.95-11.06,13-6.4,4.43-2-11.33-8.86-12.31s-4.44,11.32-10.34,12.31-3-4.93-12.81-7.88c-4.68-1.4-8.67.31-11.6,2.49A38.29,38.29,0,0,1,571,885.4V793H543.19V887.2q0,21.57,16.16,35.21T599.25,936q23.57,0,40.1-13,17.86-14.26,17.87-37.25V793H629.47Z"/><rect class="cls-4" x="809.41" y="793.04" width="28.41" height="141.29"/><path class="cls-4" d="M1093,810.14q-23.57-17.1-53.78-17.1H993.34V934.33h27.36v0l19.58-.16q38.67,0,60.91-24Q1120,889.87,1120,862.5,1120,829.82,1093,810.14ZM1078.76,895q-14.54,16.9-36.58,16.91H1020.7V815h12.36q26.42,0,42.76,14,15.77,13.49,15.77,33.73Q1091.59,880,1078.76,895Z"/><path class="cls-4" d="M606,871.39a2,2,0,1,0-2-2A2,2,0,0,0,606,871.39Z"/><path class="cls-4" d="M604.37,880.71a3.7,3.7,0,1,0,3.69-3.69A3.69,3.69,0,0,0,604.37,880.71Z"/></svg>