<svg xmlns="http://www.w3.org/2000/svg" width="21" height="22" fill="none" viewBox="0 0 21 22">
  <path fill="#3D385C" d="M17.2483 7.37284C16.8733 7.94873 16.3912 8.44427 15.8421 8.83266C15.8555 8.9532 15.8555 9.07373 15.8555 9.19427C15.8555 12.9175 13.0162 17.2032 7.84654 17.2032C6.25279 17.2032 4.77957 16.7344 3.53404 15.9443C3.74832 15.9711 3.976 15.9844 4.20368 15.9844C5.52958 15.9844 6.73493 15.5291 7.69922 14.7791C6.46708 14.7523 5.43583 13.9353 5.07422 12.8237C5.24833 12.8505 5.42243 12.8773 5.59654 12.8773C5.851 12.8773 6.0385 12.8371 6.27958 12.7702C4.99386 12.5157 3.96261 11.3773 3.96261 10.0112C3.96261 9.99784 3.96261 9.98445 3.96261 9.98445C4.39118 10.1853 4.83315 10.3193 5.3019 10.3327C4.53851 9.82373 4.08315 8.96659 4.08315 7.98891C4.08315 7.47998 4.23047 6.98445 4.47154 6.56927C5.8644 8.28355 7.94029 9.39516 10.284 9.5157C10.2305 9.3148 10.2171 9.08712 10.2171 8.87284C10.2171 7.31927 11.476 6.06034 13.0296 6.06034C13.8331 6.06034 14.5698 6.39516 15.0787 6.94427C15.7215 6.82373 16.3242 6.58266 16.8733 6.26123C16.659 6.91748 16.2171 7.47998 15.6278 7.8282C16.2037 7.74784 16.7394 7.60052 17.2483 7.37284ZM20.6769 4.77462C20.6769 2.64516 18.9492 0.91748 16.8198 0.91748H3.96261C1.83315 0.91748 0.105469 2.64516 0.105469 4.77462V17.6318C0.105469 19.7612 1.83315 21.4889 3.96261 21.4889H16.8198C18.9492 21.4889 20.6769 19.7612 20.6769 17.6318V4.77462Z"/>
</svg>
