<svg width="22" height="22" viewBox="0 0 22 22" fill="none" xmlns="http://www.w3.org/2000/svg">
<path d="M17.3979 0.91748H4.54073C2.41127 0.91748 0.683594 2.64516 0.683594 4.77462V17.6318C0.683594 19.7612 2.41127 21.4889 4.54073 21.4889H11.6657V13.5202H8.98717V10.413H11.6657V8.12284C11.6657 5.47105 13.2997 4.02462 15.6702 4.02462C16.7952 4.02462 17.7729 4.10498 18.0541 4.14516V6.91748L16.4202 6.93087C15.1211 6.93087 14.88 7.53355 14.88 8.43087V10.413H17.947L17.5452 13.5202H14.88V21.4889H17.3979C19.5273 21.4889 21.255 19.7612 21.255 17.6318V4.77462C21.255 2.64516 19.5273 0.91748 17.3979 0.91748Z" fill="#3D385C"/>
</svg>
