<svg id="Layer_1" data-name="Layer 1" xmlns="http://www.w3.org/2000/svg" viewBox="0 0 1200 1200"><defs><style>.cls-1{fill:#2027b8;}.cls-2{fill:#ea2922;}.cls-3{fill:#6f00b1;}</style></defs><title>fluid icon svg</title><path class="cls-1" d="M1117.89,939.1c-4.24,34.11-24,66.47-53.57,84.23-53.11,31.86-121.36,15.19-178.89-7.75S768.1,963.66,707,973.82c-45.56,7.57-85.2,36.26-130.35,46-40.38,8.7-84.72.84-117.76-23.94S405.62,929,410.06,887.94c5.29-48.89,45.16-90.47,92.55-103.6,73.76-20.43,120.18,26,182.72,52.29,66.57,27.94,143.82,24.29,211.86,3.74,40.81-12.32,82-30.67,124.26-25,45.84,6.17,85.82,43.46,95.16,88.76A107.14,107.14,0,0,1,1117.89,939.1Z"/><path class="cls-2" d="M543.27,152.1c31.44-13.89,69.35-13.6,99.79,2.65,54.63,29.17,75.42,96.28,85.32,157.42s15.79,127.33,55.91,174.51c29.91,35.18,74.9,54.43,106.46,88.15C919,605,935,647.07,930.75,688.15s-30,80.07-67.46,97.38c-44.65,20.59-100.82,7.78-136.44-26.12-55.44-52.77-39.45-116.48-49.09-183.61C667.5,504.34,624.65,440,572.05,392.16c-31.55-28.67-68.46-54.57-85.31-93.73-18.28-42.5-6.84-96,27.21-127.27A107.51,107.51,0,0,1,543.27,152.1Z"/><path class="cls-3" d="M558.86,471.25c-28.43-19.32-65.77-25.84-98.64-15.32-59,18.87-91.5,81.16-112.22,139.52s-38.41,122.41-86.36,161.62c-35.75,29.23-83.46,40.08-120.56,67.59-33.19,24.6-56.54,63.1-59.72,104.28s15.07,84.15,48.86,107.91c40.23,28.29,97.78,25.77,138.91-1.17,64-41.94,59.75-107.49,81.29-171.8,22.93-68.45,76.65-124.09,137-161.66,36.19-22.53,77.16-41.37,100.76-76.87,25.62-38.52,24-93.17-3.9-130.08A107.38,107.38,0,0,0,558.86,471.25Z"/></svg>