<svg width="24" height="20" viewBox="0 0 24 20" fill="none" xmlns="http://www.w3.org/2000/svg">
<path d="M21.5241 5.45626C21.7773 4.69657 21.9041 3.90905 21.9041 3.0934C21.9041 2.00573 21.6647 0.983681 21.1866 0.0273438C20.1836 0.0273438 19.2976 0.210345 18.5285 0.575905C17.7599 0.941563 16.8832 1.50879 15.8991 2.2776C14.6615 1.9776 13.3485 1.82761 11.9611 1.82761C10.4421 1.82761 8.99347 1.99179 7.61527 2.31991C6.61213 1.53224 5.72609 0.953435 4.95724 0.582999C4.18839 0.212562 3.29771 0.027393 2.28502 0.027393C1.80685 0.98373 1.56779 2.00583 1.56779 3.09345C1.56779 3.9186 1.69429 4.71558 1.94749 5.48429C0.672193 6.9752 0.034668 8.83157 0.034668 11.0537C0.034668 13.0042 0.325205 14.5557 0.906623 15.7092C1.21612 16.3184 1.61917 16.8575 2.11616 17.3265C2.61295 17.7951 3.18023 18.1751 3.81785 18.4659C4.45557 18.7563 5.09768 18.9979 5.74471 19.1899C6.39169 19.3821 7.10656 19.5228 7.8895 19.6116C8.67239 19.701 9.36386 19.7595 9.9639 19.7879C10.5639 19.8157 11.2295 19.8299 11.9611 19.8299C12.8235 19.8299 13.6062 19.8086 14.3097 19.7667C15.013 19.7246 15.8168 19.6212 16.7217 19.4575C17.6265 19.2933 18.4235 19.0705 19.1128 18.7893C19.8019 18.5081 20.4631 18.1048 21.096 17.5799C21.7288 17.0547 22.2232 16.4313 22.5797 15.7092C23.1513 14.5465 23.4374 12.9946 23.4374 11.0538C23.4371 8.82221 22.7995 6.95643 21.5241 5.45626ZM19.837 15.6877C19.5369 16.3021 19.1571 16.7845 18.6978 17.1365C18.2382 17.4882 17.6664 17.7693 16.982 17.9806C16.2973 18.1914 15.6413 18.3297 15.013 18.3951C14.3846 18.4608 13.6863 18.4935 12.9172 18.4935H10.5544C9.78562 18.4935 9.08697 18.4608 8.45885 18.3951C7.83068 18.3297 7.17439 18.1914 6.48987 17.9806C5.8056 17.7693 5.23374 17.4882 4.77419 17.1365C4.31464 16.7845 3.93494 16.3021 3.6349 15.6877C3.3349 15.0734 3.18486 14.354 3.18486 13.529C3.18486 12.4035 3.50835 11.447 4.15538 10.6598C4.80236 9.87214 5.67895 9.47845 6.78523 9.47845C7.18858 9.47845 8.10275 9.57682 9.52789 9.77377C10.1935 9.87687 10.9296 9.92844 11.7359 9.92844C12.5424 9.92844 13.2784 9.87702 13.9439 9.77377C15.3881 9.57677 16.302 9.47845 16.6866 9.47845C17.7929 9.47845 18.6695 9.87234 19.3164 10.6598C19.9635 11.4474 20.2868 12.4035 20.2868 13.529C20.2868 14.3541 20.1367 15.074 19.837 15.6877Z" fill="#3D385C"/>
<path d="M8.25354 11.3065C7.96754 10.9876 7.62779 10.8281 7.23391 10.8281C6.83992 10.8281 6.50013 10.9878 6.21417 11.3065C5.92836 11.6252 5.72664 11.9816 5.6095 12.3749C5.49211 12.7691 5.43359 13.1535 5.43359 13.5287C5.43359 13.9036 5.49226 14.288 5.6095 14.6821C5.72649 15.0757 5.92812 15.4319 6.21417 15.7505C6.50027 16.0695 6.83992 16.229 7.23391 16.229C7.62779 16.229 7.96769 16.0692 8.25354 15.7505C8.53945 15.4319 8.74107 15.0757 8.85821 14.6821C8.97545 14.288 9.03412 13.9036 9.03412 13.5287C9.03412 13.1538 8.9756 12.7691 8.85821 12.3749C8.74102 11.9817 8.5396 11.6254 8.25354 11.3065Z" fill="#3D385C"/>
<path d="M17.255 11.3065C16.9691 10.9876 16.6292 10.8281 16.2354 10.8281C15.8418 10.8281 15.5017 10.9878 15.2157 11.3065C14.9298 11.6252 14.7282 11.9816 14.6112 12.3749C14.4937 12.7691 14.4351 13.1535 14.4351 13.5287C14.4351 13.9036 14.4937 14.288 14.6112 14.6821C14.7282 15.0757 14.9298 15.4319 15.2157 15.7505C15.5018 16.0695 15.8418 16.229 16.2354 16.229C16.6292 16.229 16.9691 16.0692 17.255 15.7505C17.5407 15.4319 17.7424 15.0757 17.8598 14.6821C17.977 14.288 18.0356 13.9036 18.0356 13.5287C18.0356 13.1538 17.977 12.7691 17.8598 12.3749C17.7425 11.9817 17.5407 11.6254 17.255 11.3065Z" fill="#3D385C"/>
</svg>
